#N canvas -8 -8 1920 1037 12;
#X declare -path ./lib;
#X declare -path ./samples;
#X declare -path ./samples1;
#X declare -path ./samples2;
#X obj 373 77 loadsample-mono-2 0;
#X obj 544 77 loadsample-mono-2 1;
#X obj 713 77 loadsample-mono-2 2;
#X obj 888 77 loadsample-mono-2 3;
#X obj 1063 77 loadsample-mono-2 4;
#X obj 1233 77 loadsample-mono-2 5;
#X obj 1403 77 loadsample-mono-2 6;
#X obj 1578 77 loadsample-mono-2 7;
#X obj 71 283 main-output-2;
#N canvas -8 -8 1920 1037 audio 0;
#X obj 126 97 catch~ a-samplesound-0;
#X obj 311 96 catch~ a-samplesound-1;
#X obj 308 178 throw~ a-mainoutput-1;
#X obj 130 172 throw~ a-mainoutput-0;
#X connect 0 0 3 0;
#X connect 1 0 2 0;
#X restore 43 80 pd audio;
#N canvas -8 -8 1920 1037 declare 0;
#X obj 43 47 declare -path ./lib;
#X text 41 18 1 Declarar rutas para librerias y samples;
#X obj 52 192 loadbang;
#X msg 52 229 \; samplefile-sr 48000 \; pd dsp 1 \; c-mainoutput-switch
;
#X obj 43 76 declare -path ./samples;
#X obj 42 112 declare -path ./samples1;
#X obj 42 146 declare -path ./samples2;
#X connect 2 0 3 0;
#X restore 42 34 pd declare;
#N canvas -8 -8 1920 1037 loadsamples 1;
#X obj 111 408 f;
#X obj 150 408 + 1;
#X obj 58 351 t a b;
#X obj 58 116 t b 0 b;
#X obj 58 440 pack s f;
#X floatatom 140 327 5 0 0 0 - - -;
#X floatatom 181 339 5 0 0 0 - - -;
#X msg 58 472 \; samplefile-name-\$2 \$1;
#X obj 58 77 inlet;
#X obj 245 115 t b 0 b;
#X obj 245 74 inlet;
#X obj 442 109 t b 0 b;
#X obj 442 68 inlet;
#X floatatom 129 371 5 0 0 0 - - -;
#X obj 58 300 else/dir -ext .wav;
#X obj 58 237 bng 15 250 50 0 empty empty empty 17 7 0 10 -262144 -1
-1;
#X msg 104 172 reset \, open samples;
#X msg 291 169 reset \, open samples1;
#X msg 488 163 reset \, open samples2;
#X text 45 4 2 Cargar samples de la carpeta "samples \, samples1 \,
samples2;
#X connect 0 0 1 0;
#X connect 0 0 4 1;
#X connect 1 0 0 1;
#X connect 2 0 4 0;
#X connect 2 1 0 0;
#X connect 3 0 15 0;
#X connect 3 1 13 0;
#X connect 3 2 16 0;
#X connect 4 0 7 0;
#X connect 8 0 3 0;
#X connect 9 0 15 0;
#X connect 9 1 13 0;
#X connect 9 2 17 0;
#X connect 10 0 9 0;
#X connect 11 0 15 0;
#X connect 11 1 13 0;
#X connect 11 2 18 0;
#X connect 12 0 11 0;
#X connect 13 0 0 1;
#X connect 14 0 2 0;
#X connect 14 2 5 0;
#X connect 14 3 6 0;
#X connect 15 0 14 0;
#X connect 16 0 14 0;
#X connect 17 0 14 0;
#X connect 18 0 14 0;
#X restore 46 191 pd loadsamples;
#X obj 46 152 bng 25 250 50 0 empty empty empty 17 7 0 10 -262144 -1
-1;
#X obj 93 152 bng 25 250 50 0 empty empty empty 17 7 0 10 -262144 -1
-1;
#X obj 141 152 bng 25 250 50 0 empty empty empty 17 7 0 10 -262144
-1 -1;
#X obj 58 611 liveclock;
#X connect 12 0 11 0;
#X connect 13 0 11 1;
#X connect 14 0 11 2;
