#N canvas -8 -8 1920 1037 10;
#N canvas 0 50 450 250 (subpatch) 0;
#X array \$0-samplefile-array 176115 float 2;
#X coords 0 1 176115 -1 144 50 1 2 2;
#X restore 108 164 graph;
#X obj 32 777 soundfiler;
#X floatatom 32 808 10 0 0 0 - - -;
#X text 99 808 tamaño en muestras;
#X text 52 732 cargar muestras a la tabla;
#X obj 32 680 symbol;
#X obj 795 436 phasor~;
#X obj 832 545 - 3;
#X obj 795 567 *~;
#X text 831 559 rango de 1 a tamaño-2, f 12;
#X obj 795 355 *;
#X obj 79 885 /;
#X obj 108 233 tgl 10 0 c-play_sample-status-\$1 c-play_sample-status-\$1
play/pause 14 4 0 8 -204786 -1 -1 0 1;
#X obj 121 290 hsl 116 11 -1 1 0 0 c-play_sample-rate-\$1 c-play_sample-rate-\$1
rate_(-1:1) -2 -5 0 8 -262130 -1 -1 11500 1;
#X obj 974 374 snapshot~;
#X msg 974 311 stop;
#X obj 111 214 hsl 139 12 0 1 0 0 empty empty empty -2 -8 0 10 -262144
-1 -1 0 1;
#X obj 1017 924 line~;
#X obj 1018 895 pack f 30;
#X obj 858 946 *~;
#X symbolatom 108 129 23 0 0 2 Filename: - -;
#X obj 277 4 loadbang;
#X obj 239 290 bng 11 250 50 0 empty empty empty 17 7 0 10 -262144
-1 -1;
#X msg 203 635 1;
#X obj 107 290 bng 11 250 50 0 empty empty empty 17 7 0 10 -262144
-1 -1;
#X msg 166 635 -1;
#X obj 214 150 bng 10 250 50 0 empty empty norm. 12 5 0 10 -262144
-1 -1;
#X obj 858 983 intensitypanning-2;
#X obj 858 1013 throw~ a-samplesound-0;
#X obj 963 1041 throw~ a-samplesound-1;
#X obj 121 316 hsl 116 11 -1 1 0 0 c-play_sample-pan-\$1 c-play_sample-pan-\$1
panning_(-1:1) -2 -5 0 8 -204800 -1 -1 5750 1;
#X msg 209 61 symbol;
#X obj 795 375 sig~;
#X obj 962 954 r c-play_sample-pan-\$1;
#X obj 121 265 hsl 125 12 0 1 0 0 c-play_sample-vol-\$1 c-play_sample-vol-\$1
volume_(0:1) -2 -5 0 8 -261682 -1 -1 12400 1;
#X obj 1018 866 r c-play_sample-vol-\$1;
#X obj 747 51 r c-play_sample-rate-\$1;
#X obj 166 693 s c-play_sample-rate-\$1;
#X obj 239 316 bng 11 250 50 0 empty empty c 12 5 0 10 -262144 -1 -1
;
#X obj 286 328 s c-play_sample-pan-\$1;
#X msg 286 303 0;
#X obj 108 243 tgl 10 0 c-play_sample-floop-\$1 c-play_sample-floop-\$1
loop 14 4 0 8 -262144 -1 -1 0 1;
#X floatatom 573 312 0 0 0 0 - - -;
#X floatatom 218 233 4 0 0 3 sec. - -;
#X obj 581 500 samphold~;
#X obj 795 542 *~;
#X msg 581 576 0;
#X obj 581 410 r c-play_sample-floop-\$1;
#X obj 581 445 sig~;
#X obj 795 589 +~ 1;
#X obj 1025 555 pack f 30;
#X obj 1025 576 line~;
#X obj 796 666 *~;
#X obj 659 454 wrap~;
#X obj 659 431 *~;
#X msg 645 319 reset 0;
#X obj 594 131 t f b;
#X obj 25 24 r c-play_sample-rate-\$1;
#X obj 25 46 abs;
#X obj 25 96 f;
#X obj 25 70 t b f;
#X obj 25 117 /;
#X obj 765 1041 s~ a-samplesound-0-f\$1;
#X obj 1000 1007 s~ a-samplesound-1-f\$1;
#X obj 581 528 -~ 1;
#X obj 581 553 else/trig2bang~;
#X obj 32 711 pack s \$0;
#X obj 32 838 s \$0-samplefile-size;
#X obj 79 909 s \$0-samplefile-dur;
#X obj 32 648 r samplefile-name-\$1;
#X obj 94 863 r samplefile-sr;
#X obj 832 519 r \$0-samplefile-size;
#X msg 269 189 \; \$1-samplefile-array normalize;
#X obj 269 164 \$0;
#X obj 828 257 r \$0-samplefile-dur;
#X msg 32 747 read -resize \$1 \$2-samplefile-array;
#X obj 795 615 tabread4~ \$0-samplefile-array;
#X obj 277 26 \$1 \$0;
#X obj 55 46 r \$0-samplefile-dur;
#X obj 284 116 r c-play_sample-pos-\$1;
#X obj 974 400 s c-play_sample-pos-\$1;
#X floatatom 284 137 0 0 0 0 - - -;
#X msg 733 316 set 1;
#X obj 62 979 tgl 15 0 empty empty empty 17 7 0 10 -262144 -1 -1 0
1;
#X obj 907 221 s \$0-samplefile-dspswitch;
#X obj 525 657 s \$0-samplefile-dspswitch;
#X obj 37 956 r \$0-samplefile-dspswitch;
#X text 35 930 libera el procesamiento cuando se termina la lectura
del sample, f 68;
#X msg 907 200 1;
#X floatatom 166 666 5 0 0 0 - - -;
#X obj 173 233 bng 10 250 50 0 empty empty stop 12 5 0 8 -204786 -1
-1;
#X msg 485 399 set 0;
#X obj 828 332 /;
#X msg 828 308 1;
#X obj 828 285 t b f;
#X obj 581 623 s c-play_sample-status-\$1;
#X obj 769 83 r c-play_sample-status-\$1;
#X obj 1025 528 r c-play_sample-status-\$1;
#X obj 573 283 t f b;
#X obj 512 378 s c-play_sample-pos-\$1;
#X obj 747 224 spigot;
#X obj 769 108 t b b f f;
#X obj 795 249 f;
#X msg 820 231 0, f 4;
#X obj 820 205 t b b;
#X obj 820 133 sel 0 1;
#X obj 834 406 f;
#X obj 839 158 t b b b b;
#X obj 913 313 del 20;
#X obj 974 345 metro 50;
#N canvas -8 -8 1920 1037 rate 0;
#X obj 48 28 inlet;
#X obj 56 80 moses;
#X msg 106 109 -1;
#X msg 138 109 1;
#X obj 56 56 t f b;
#X floatatom 107 142 5 0 0 0 - - -;
#X floatatom 51 144 5 0 0 0 - - -;
#X obj 51 205 outlet;
#X obj 183 208 outlet;
#X msg 37 109 1;
#X msg 72 110 0;
#X connect 0 0 4 0;
#X connect 1 0 2 0;
#X connect 1 0 9 0;
#X connect 1 1 3 0;
#X connect 1 1 10 0;
#X connect 2 0 5 0;
#X connect 3 0 5 0;
#X connect 4 0 1 0;
#X connect 5 0 8 0;
#X connect 6 0 7 0;
#X connect 9 0 6 0;
#X connect 10 0 6 0;
#X restore 594 155 pd rate;
#X obj 594 188 v \$0-samplefile-startpos;
#X obj 512 355 f;
#X text 843 436 posicion de lectura de la muestra;
#X obj 485 329 t b b;
#X msg 402 466 0;
#X obj 402 486 s c-play_sample-status-\$1;
#X obj 121 359 hsl 116 11 -240 240 0 0 c-play_sample-pitch-\$1 c-play_sample-pitch-\$1
pitchshifter_(-24:24) -2 -5 0 8 -232576 -1 -1 5750 1;
#X obj 239 359 bng 11 250 50 0 empty empty R 12 5 0 8 -262144 -1 -1
;
#X msg 276 360 0;
#X obj 276 380 s c-play_sample-pitch-\$1;
#X obj 578 745 r c-play_sample-pitch-\$1;
#X floatatom 1108 898 5 0 0 0 - - -;
#X obj 528 773 else/pitch.shift~;
#X obj 635 596 bng 15 250 50 0 empty empty empty 17 7 0 10 -262144
-1 -1;
#X obj 173 242 bng 10 250 50 0 empty empty replay 12 5 0 8 -204786
-1 -1;
#X text 104 332 Processing:;
#X obj 796 687 s~ \$0-samplefile-out;
#X obj 528 723 r~ \$0-samplefile-out;
#X obj 858 911 r~ \$0-samplefile-outproc;
#X obj 528 1022 s~ \$0-samplefile-outproc;
#X text 734 29 PLAY SAMPLE;
#X text 524 698 PROCESSING;
#X msg 579 948 wet \$1;
#X obj 120 466 hsl 116 11 0 1 0 0 c-play_sample-reverb-wet-\$1 c-play_sample-reverb-wet-\$1
reverb_wet_(0:1) -2 -5 0 8 -228856 -1 -1 0 1;
#X obj 579 926 r c-play_sample-reverb-wet-\$1;
#X obj 120 487 hsl 116 11 0 1 0 0 c-play_sample-reverb-size-\$1 c-play_sample-reverb-size-\$1
reverb_roomsize_(0:1) -2 -5 0 8 -228856 -1 -1 5750 1;
#X msg 640 972 size \$1;
#X obj 640 950 r c-play_sample-reverb-size-\$1;
#X obj 120 413 hsl 116 11 50 1500 0 0 c-play_sample-delay-time-\$1
c-play_sample-delay-time-\$1 delay_time_(50:1500)ms -2 -5 0 8 -4032
-1 -1 0 1;
#X obj 120 439 hsl 116 11 0 10000 0 0 c-play_sample-delay-feedback-\$1
c-play_sample-delay-feedback-\$1 delay_feedback_(0:10000)ms -2 -5 0
8 -4032 -1 -1 0 1;
#X obj 551 855 r c-play_sample-delay-time-\$1;
#X obj 573 874 r c-play_sample-delay-feedback-\$1;
#X obj 37 1006 switch~;
#X obj 363 569 r c-play_sample-delay-feedback-\$1;
#X obj 525 623 pipe;
#X obj 238 466 bng 11 250 50 0 empty empty R 12 5 0 8 -262144 -1 -1
;
#X obj 238 413 bng 11 250 50 0 empty empty R 12 5 0 8 -262144 -1 -1
;
#X obj 528 903 else/fbdelay~;
#X obj 528 981 else/mono.rev~;
#X obj 271 507 \$1;
#X obj 249 626 \$1;
#X msg 271 527 \; c-play_sample-reverb-wet-\$1 0 \; c-play_sample-reverb-size-\$1
0.5 \;;
#X obj 421 245 s c-play_sample-status-\$1;
#X msg 421 225 1;
#X msg 249 648 \; c-play_sample-delay-time-\$1 50 \; c-play_sample-delay-feedback-\$1
0 \;;
#X obj 363 590 + 500;
#X obj 528 820 else/rm~;
#X obj 582 797 r c-play_sample-rm-freq-\$1;
#X obj 120 385 hsl 116 11 0 4000 0 0 c-play_sample-rm-freq-\$1 c-play_sample-rm-freq-\$1
ringmodulator_freq_(0:4000)Hz -2 -5 0 8 -261234 -1 -1 0 1;
#X msg 428 -21 \; \$2-samplefile-array const 0 \; c-play_sample-vol-\$1
1 \; c-play_sample-pitch-\$1 0 \; c-play_sample-pan-\$1 0 \; c-play_sample-rate-\$1
1 \; c-play_sample-reverb-wet-\$1 0 \; c-play_sample-reverb-size-\$1
0.5 \; c-play_sample-delay-time-\$1 50 \; c-play_sample-delay-feedback-\$1
0 \; c-play_sample-rm-freq-\$1 0 \;;
#X obj 238 385 bng 11 250 50 0 empty empty R 12 5 0 8 -262144 -1 -1
;
#X msg 280 415 0;
#X obj 280 435 s c-play_sample-rm-freq-\$1;
#X text 1101 -9 jlquispec 2019 *** https://github.com/jlquispec;
#X connect 1 0 2 0;
#X connect 2 0 11 0;
#X connect 2 0 67 0;
#X connect 5 0 20 0;
#X connect 5 0 66 0;
#X connect 6 0 45 0;
#X connect 6 0 54 0;
#X connect 7 0 8 1;
#X connect 8 0 49 0;
#X connect 10 0 32 0;
#X connect 11 0 68 0;
#X connect 14 0 80 0;
#X connect 15 0 109 0;
#X connect 16 0 98 0;
#X connect 17 0 19 1;
#X connect 18 0 17 0;
#X connect 19 0 27 0;
#X connect 19 0 27 1;
#X connect 21 0 31 0;
#X connect 21 0 77 0;
#X connect 22 0 23 0;
#X connect 23 0 89 0;
#X connect 24 0 25 0;
#X connect 25 0 89 0;
#X connect 26 0 73 0;
#X connect 27 0 28 0;
#X connect 27 0 62 0;
#X connect 27 1 29 0;
#X connect 27 1 63 0;
#X connect 31 0 20 0;
#X connect 32 0 6 0;
#X connect 33 0 27 2;
#X connect 35 0 18 0;
#X connect 35 0 122 0;
#X connect 36 0 56 0;
#X connect 36 0 100 0;
#X connect 36 0 102 1;
#X connect 38 0 40 0;
#X connect 40 0 39 0;
#X connect 42 0 106 0;
#X connect 44 0 64 0;
#X connect 44 0 45 1;
#X connect 45 0 8 0;
#X connect 45 0 14 0;
#X connect 46 0 114 0;
#X connect 46 0 95 0;
#X connect 46 0 124 0;
#X connect 46 0 145 0;
#X connect 47 0 48 0;
#X connect 48 0 44 0;
#X connect 49 0 76 0;
#X connect 50 0 51 0;
#X connect 51 0 52 1;
#X connect 52 0 127 0;
#X connect 53 0 44 1;
#X connect 54 0 53 0;
#X connect 55 0 44 0;
#X connect 56 0 110 0;
#X connect 56 1 55 0;
#X connect 57 0 58 0;
#X connect 58 0 60 0;
#X connect 59 0 61 0;
#X connect 60 0 59 0;
#X connect 60 1 61 1;
#X connect 61 0 43 0;
#X connect 64 0 65 0;
#X connect 65 0 46 0;
#X connect 66 0 75 0;
#X connect 69 0 5 0;
#X connect 70 0 11 1;
#X connect 71 0 7 0;
#X connect 73 0 72 0;
#X connect 74 0 94 0;
#X connect 75 0 1 0;
#X connect 76 0 52 0;
#X connect 77 0 160 0;
#X connect 78 0 59 0;
#X connect 79 0 16 0;
#X connect 79 0 81 0;
#X connect 82 0 44 0;
#X connect 86 0 83 0;
#X connect 86 0 143 0;
#X connect 88 0 84 0;
#X connect 89 0 37 0;
#X connect 90 0 114 0;
#X connect 91 0 44 0;
#X connect 92 0 10 1;
#X connect 93 0 92 0;
#X connect 94 0 93 0;
#X connect 94 1 92 1;
#X connect 96 0 101 0;
#X connect 97 0 50 0;
#X connect 98 0 42 0;
#X connect 98 1 55 0;
#X connect 100 0 10 0;
#X connect 101 1 55 0;
#X connect 101 2 100 1;
#X connect 101 3 105 0;
#X connect 102 0 10 0;
#X connect 103 0 10 0;
#X connect 104 0 103 0;
#X connect 104 1 15 0;
#X connect 105 0 104 0;
#X connect 105 1 107 0;
#X connect 105 1 82 0;
#X connect 106 0 6 1;
#X connect 107 0 108 0;
#X connect 107 1 102 0;
#X connect 107 2 88 0;
#X connect 107 3 106 0;
#X connect 108 0 109 0;
#X connect 109 0 14 0;
#X connect 110 0 111 0;
#X connect 110 0 112 1;
#X connect 110 1 54 1;
#X connect 112 0 99 0;
#X connect 112 0 106 1;
#X connect 114 0 115 0;
#X connect 114 0 91 0;
#X connect 114 1 112 0;
#X connect 115 0 116 0;
#X connect 118 0 119 0;
#X connect 119 0 120 0;
#X connect 121 0 123 1;
#X connect 123 0 157 0;
#X connect 125 0 154 0;
#X connect 125 0 112 0;
#X connect 128 0 123 0;
#X connect 129 0 19 0;
#X connect 133 0 149 1;
#X connect 135 0 133 0;
#X connect 137 0 149 1;
#X connect 138 0 137 0;
#X connect 141 0 148 1;
#X connect 142 0 148 2;
#X connect 144 0 156 0;
#X connect 145 0 85 0;
#X connect 146 0 150 0;
#X connect 147 0 151 0;
#X connect 148 0 149 0;
#X connect 149 0 130 0;
#X connect 150 0 152 0;
#X connect 151 0 155 0;
#X connect 154 0 153 0;
#X connect 156 0 145 1;
#X connect 157 0 148 0;
#X connect 158 0 157 1;
#X connect 161 0 162 0;
#X connect 162 0 163 0;
#X coords 0 -1 1 1 160 410 1 100 100;
