#N canvas -8 -8 1920 1037 10;
#X obj 484 361 *~;
#X obj 564 365 *~;
#X floatatom 500 255 5 0 0 0 - - -;
#X obj 429 164 f;
#X obj 500 226 spigot;
#X msg 456 226 0;
#X obj 456 195 sel 0 1;
#X obj 429 139 t b f;
#X obj 429 98 r c-mainoutput-switch;
#X text 25 60 MAIN OUTPUT (STEREO);
#X obj 500 304 line~;
#X obj 500 282 pack f 30;
#X obj 386 120 r c-mainoutput-volume;
#X obj 653 354 r c-mainoutput-panning;
#X msg 1081 455 stop;
#X obj 684 663 writesf~ 2;
#X obj 897 240 r c-mainoutput-rec;
#X obj 924 271 sel 1 0;
#X obj 163 181 vu 10 80 empty empty -1 -8 0 10 -66577 -1 1 0;
#X obj 114 181 vu 10 80 empty empty -1 -8 0 10 -66577 -1 1 0;
#X obj 499 544 *~;
#X obj 568 554 *~;
#X obj 537 481 limiter~ 50 1;
#X obj 566 520 z~ 64;
#X obj 499 521 z~ 64;
#X obj 536 656 dac~;
#X text 605 522 pequeñisimo delay de 64 samples;
#X floatatom 113 160 5 0 0 0 - - -;
#X floatatom 162 160 5 0 0 0 - - -;
#X obj 499 580 hip~ 1;
#X obj 569 582 hip~ 1;
#X obj 207 636 env~;
#X obj 421 639 env~;
#X text 248 635 antes colocaba 128;
#X obj 207 657 - 96;
#X obj 421 660 - 96;
#X obj 342 314 catch~ a-mainoutput-0;
#X obj 581 243 catch~ a-mainoutput-1;
#X obj 222 177 vsl 15 85 0 1 0 0 c-mainoutput-volume c-mainoutput-volume
Volume 0 -9 0 10 -262144 -1 -1 16800 1;
#X obj 492 419 intensitypanning-2;
#X text 31 14 INPUTS: c-mainoutput-volume c-mainoutput-panning a-mainoutput-0
a-mainoutput-1;
#X obj 112 144 hsl 78 10 -1 1 0 0 c-mainoutput-panning c-mainoutput-panning
panning_(-1:1) -2 -8 0 8 -262144 -1 -1 7400 1;
#X obj 222 144 tgl 15 1 empty empty mute 17 7 0 10 -262144 -1 -1 0
1;
#X text 624 433 LIMITADOR GLOBAL USANDO ZEXY;
#X obj 352 12 loadbang;
#X obj 192 144 bng 10 250 50 0 empty empty c 11 5 0 10 -262144 -1 -1
;
#X obj 1031 241 r c-mainoutput-file;
#X obj 944 346 symbol;
#X msg 946 394 open -bytes 3 \$1 \, start;
#X obj 222 112 tgl 23 0 c-mainoutput-dspswitch c-mainoutput-dspswitch
DSP 25 10 0 10 -258113 -1 -1 1 1;
#X msg 319 169 \; pd dsp \$1;
#X msg 352 39 \; c-mainoutput-panning 0 \; c-mainoutput-dspswitch 1
\; c-mainoutput-volume 1 \;;
#X msg 322 257 \; c-mainoutput-switch \$1;
#X obj 322 236 == 0;
#X msg 196 339 \; c-mainoutput-panning 0 \;;
#X connect 0 0 39 0;
#X connect 1 0 39 1;
#X connect 2 0 11 0;
#X connect 3 0 4 0;
#X connect 4 0 2 0;
#X connect 5 0 2 0;
#X connect 6 0 5 0;
#X connect 6 1 3 0;
#X connect 7 0 3 0;
#X connect 7 1 4 1;
#X connect 7 1 6 0;
#X connect 8 0 7 0;
#X connect 10 0 0 1;
#X connect 10 0 1 1;
#X connect 11 0 10 0;
#X connect 12 0 3 0;
#X connect 13 0 39 2;
#X connect 14 0 15 0;
#X connect 16 0 17 0;
#X connect 17 0 47 0;
#X connect 17 1 14 0;
#X connect 20 0 29 0;
#X connect 21 0 30 0;
#X connect 22 0 21 0;
#X connect 22 0 20 1;
#X connect 23 0 21 1;
#X connect 24 0 20 0;
#X connect 27 0 19 0;
#X connect 28 0 18 0;
#X connect 29 0 15 0;
#X connect 29 0 31 0;
#X connect 29 0 25 0;
#X connect 30 0 15 1;
#X connect 30 0 32 0;
#X connect 30 0 25 1;
#X connect 31 0 34 0;
#X connect 32 0 35 0;
#X connect 34 0 27 0;
#X connect 35 0 28 0;
#X connect 36 0 0 0;
#X connect 37 0 1 0;
#X connect 38 0 3 0;
#X connect 39 0 22 0;
#X connect 39 0 24 0;
#X connect 39 1 22 1;
#X connect 39 1 23 0;
#X connect 42 0 53 0;
#X connect 44 0 51 0;
#X connect 45 0 54 0;
#X connect 46 0 47 1;
#X connect 47 0 48 0;
#X connect 48 0 15 0;
#X connect 49 0 50 0;
#X connect 53 0 52 0;
#X coords 0 -1 1 1 170 172 2 100 100;
